<svg width="134" height="63" viewBox="0 0 134 63" fill="none" xmlns="http://www.w3.org/2000/svg">
<g clip-path="url(#clip0_165_955)">
<path d="M36.3896 41.7829H42.4796V43.8373C43.679 42.2267 45.521 41.3033 48.084 41.3033C49.2121 41.3033 49.9331 41.3748 50.7185 41.6469L50.7899 47.3735C49.9331 46.9297 48.8765 46.6863 47.6771 46.6863C44.4286 46.6863 42.4796 48.5403 42.4796 51.5897V61.8761H36.3896V41.7829Z" fill="white"/>
<path d="M53.8027 51.8331C53.8027 45.7271 58.115 41.3104 64.2334 41.3104C70.3519 41.3104 74.6642 45.6985 74.6642 51.8331C74.6642 52.4129 74.6285 53.0643 74.5285 53.7873H59.8498C60.3282 56.1209 61.9345 57.4523 64.2263 57.4523C65.9683 57.4523 67.4033 56.8367 67.9174 55.8775H74.0359C73.0078 59.7144 69.074 62.3558 64.2192 62.3558C58.1078 62.3558 53.8027 57.9677 53.8027 51.8331ZM68.7099 49.8431C68.1958 47.4451 66.6252 46.1423 64.2334 46.1423C61.8417 46.1423 60.3353 47.4451 59.8213 49.8431H68.7099Z" fill="white"/>
<path d="M78.7764 53.4079V41.7829H84.8663V52.3771C84.8663 55.4265 86.0943 57.1087 88.3861 57.1087C90.7778 57.1087 92.2128 55.2261 92.2128 52.1051V41.7829H98.3027V61.8762H92.2128V59.8217C91.0134 61.4323 89.1714 62.3558 86.6083 62.3558C81.9606 62.3558 78.7764 58.9627 78.7764 53.4079Z" fill="white"/>
<path d="M102.68 41.7829H108.769V43.7013C109.969 42.0907 111.468 41.3033 113.696 41.3033C116.223 41.3033 118.315 42.334 119.643 44.1809C121.149 42.2625 123.27 41.3033 126.311 41.3033C130.93 41.3033 134.007 44.6605 134.007 50.2511V61.8761H127.917V51.2819C127.917 48.2325 126.754 46.5503 124.533 46.5503C122.549 46.5503 121.492 48.1251 121.385 50.9741V61.8761H115.295V51.2819C115.295 48.2325 114.131 46.5503 111.911 46.5503C109.926 46.5503 108.869 48.1251 108.762 50.9741V61.8761H102.672V41.7829H102.68Z" fill="white"/>
<path d="M58.165 21.3245V9.70663H64.255V20.3009C64.255 23.3503 65.483 25.0325 67.7747 25.0325C70.1664 25.0325 71.6014 23.1499 71.6014 20.0289V9.70663H77.6914V29.7999H71.6014V27.7455C70.402 29.3561 68.5601 30.2795 65.9899 30.2795C61.3421 30.2724 58.165 26.8793 58.165 21.3245Z" fill="white"/>
<path d="M99.8094 15.7339H93.9265C93.7195 14.5027 92.3202 13.7439 90.5425 13.7439C88.6933 13.7439 87.3654 14.3953 87.3654 15.2901C87.3654 16.2851 88.7005 16.7647 92.1203 17.3159C98.0389 18.2106 100.159 20.1649 100.159 23.6223C100.159 27.7383 95.8471 30.2723 90.7566 30.2723C85.5234 30.2723 81.561 27.6667 81.354 23.4505H87.2369C87.4439 24.7533 88.9432 25.6123 90.8637 25.6123C92.8128 25.6123 94.2478 24.8965 94.2478 23.9659C94.2478 23.0067 92.877 22.3911 89.4287 21.8757C84.6381 21.1527 81.4968 19.6781 81.4968 15.5979C81.4968 11.6895 85.5663 9.21985 90.6638 9.21985C95.64 9.21985 99.5738 11.761 99.8094 15.7339Z" fill="white"/>
<path d="M110.511 3.73662C110.511 5.89842 108.941 7.47324 106.784 7.47324C104.628 7.47324 103.058 5.89842 103.058 3.73662C103.058 1.57482 104.628 0 106.784 0C108.941 0 110.511 1.57482 110.511 3.73662ZM109.826 29.8643H103.736V9.70662H109.826V29.8643Z" fill="white"/>
<path d="M124.019 30.2724C117.829 30.2724 113.381 25.8485 113.381 19.7497C113.381 13.6508 117.829 9.22702 124.019 9.22702C129.252 9.22702 133.186 12.5843 133.9 16.8721H127.746C127.268 15.4977 125.932 14.5385 124.019 14.5385C121.178 14.5385 119.336 16.7361 119.336 19.7497C119.336 22.7633 121.185 24.9609 124.019 24.9609C125.897 24.9609 127.303 24.0017 127.853 22.5629H134.007C132.979 27.2229 129.081 30.2724 124.019 30.2724Z" fill="white"/>
<path d="M39.1098 16.4404L29.6215 1H24.067V34.8515C21.5825 33.3339 18.6482 32.5322 15.5283 32.5322C6.53258 32.5251 0 38.8959 0 47.6791C0 56.4623 6.53258 62.8332 15.5283 62.8332C24.5239 62.8332 31.0565 56.4623 31.0565 47.6791V15.3595L37.018 25.2522H41.2159L47.1774 15.3595V29.8836H54.1669V1H48.6124L39.1098 16.4404ZM24.067 47.6791C24.067 52.7615 20.4759 56.448 15.5283 56.448C10.5806 56.448 6.9895 52.7615 6.9895 47.6791C6.9895 42.5967 10.5806 38.9102 15.5283 38.9102C20.4759 38.9102 24.067 42.5967 24.067 47.6791Z" fill="#F2C94C"/>
</g>
<defs>
<clipPath id="clip0_165_955">
<rect width="134" height="63" fill="white"/>
</clipPath>
</defs>
</svg>
